<svg width="27" height="27" viewBox="0 0 27 27" fill="none" xmlns="http://www.w3.org/2000/svg">
<g clip-path="url(#clip0_258_1884)">
<path fill-rule="evenodd" clip-rule="evenodd" d="M3.17432 0.911871C3.69624 0.389299 4.40432 0.0953782 5.14289 0.094728H16.2857C16.4078 0.0945101 16.5286 0.118345 16.6414 0.164869C16.7543 0.211394 16.8568 0.279696 16.9432 0.365871L24.3717 7.79444C24.4579 7.88084 24.5262 7.98337 24.5728 8.09617C24.6193 8.20898 24.6431 8.32985 24.6429 8.45187V23.309C24.6429 24.0478 24.3494 24.7564 23.827 25.2788C23.3046 25.8012 22.596 26.0947 21.8572 26.0947H5.14289C4.40407 26.0947 3.69552 25.8012 3.17309 25.2788C2.65067 24.7564 2.35718 24.0478 2.35718 23.309V2.88044C2.35718 2.1413 2.65061 1.43187 3.17432 0.911871ZM11.5872 10.1734C11.5872 9.7723 11.914 9.44544 12.317 9.44544H14.6849C15.086 9.44544 15.4129 9.7723 15.4129 10.1734V13.0706H18.31C18.713 13.0706 19.038 13.3974 19.038 13.8004V16.1683C19.0385 16.264 19.02 16.3589 18.9836 16.4475C18.9472 16.536 18.8936 16.6165 18.8259 16.6842C18.7582 16.7519 18.6778 16.8055 18.5892 16.8419C18.5007 16.8783 18.4058 16.8968 18.31 16.8963H15.4129V19.7934C15.4136 19.8893 15.3953 19.9844 15.359 20.0732C15.3227 20.162 15.2692 20.2426 15.2014 20.3105C15.1337 20.3784 15.0532 20.4322 14.9645 20.4687C14.8758 20.5052 14.7808 20.5238 14.6849 20.5233H12.3152C12.2194 20.5238 12.1246 20.5053 12.036 20.4689C11.9475 20.4325 11.867 20.3789 11.7993 20.3112C11.7316 20.2435 11.678 20.163 11.6416 20.0745C11.6052 19.9859 11.5867 19.891 11.5872 19.7953V16.8982H8.69003C8.59414 16.8987 8.4991 16.8801 8.41043 16.8436C8.32176 16.807 8.24122 16.7533 8.1735 16.6854C8.10578 16.6175 8.05221 16.5368 8.01591 16.448C7.97961 16.3593 7.9613 16.2642 7.96204 16.1683V13.8004C7.96204 13.3974 8.28703 13.0724 8.69003 13.0724H11.5872V10.1734Z" fill="#9FA0A0"/>
</g>
<defs>
<clipPath id="clip0_258_1884">
<rect width="26" height="26" fill="white" transform="translate(0.5 0.0947266)"/>
</clipPath>
</defs>
</svg>
