<svg width="27" height="27" viewBox="0 0 27 27" fill="none" xmlns="http://www.w3.org/2000/svg">
<g clip-path="url(#clip0_258_1914)">
<path fill-rule="evenodd" clip-rule="evenodd" d="M3.17432 0.876715C3.69624 0.354143 4.40432 0.060222 5.14289 0.0595718H16.2857C16.4078 0.0593539 16.5286 0.0831885 16.6414 0.129713C16.7543 0.176238 16.8568 0.24454 16.9432 0.330715L24.3717 7.75929C24.4579 7.84568 24.5262 7.94821 24.5728 8.06102C24.6193 8.17382 24.6431 8.29469 24.6429 8.41672V23.2739C24.6429 24.0127 24.3494 24.7212 23.827 25.2437C23.3046 25.7661 22.596 26.0596 21.8572 26.0596H5.14289C4.40407 26.0596 3.69552 25.7661 3.17309 25.2437C2.65067 24.7212 2.35718 24.0127 2.35718 23.2739V2.84529C2.35718 2.10614 2.65061 1.39671 3.17432 0.876715ZM11.5872 10.1383C11.5872 9.73714 11.914 9.41029 12.317 9.41029H14.6849C15.086 9.41029 15.4129 9.73714 15.4129 10.1383V13.0354H18.31C18.713 13.0354 19.038 13.3623 19.038 13.7653V16.1331C19.0385 16.2289 19.02 16.3238 18.9836 16.4123C18.9472 16.5009 18.8936 16.5813 18.8259 16.649C18.7582 16.7167 18.6778 16.7703 18.5892 16.8067C18.5007 16.8431 18.4058 16.8616 18.31 16.8611H15.4129V19.7583C15.4136 19.8542 15.3953 19.9493 15.359 20.038C15.3227 20.1268 15.2692 20.2075 15.2014 20.2754C15.1337 20.3433 15.0532 20.397 14.9645 20.4336C14.8758 20.4701 14.7808 20.4886 14.6849 20.4881H12.3152C12.2194 20.4886 12.1246 20.4701 12.036 20.4337C11.9475 20.3973 11.867 20.3437 11.7993 20.276C11.7316 20.2083 11.678 20.1279 11.6416 20.0393C11.6052 19.9508 11.5867 19.8559 11.5872 19.7601V16.863H8.69003C8.59414 16.8635 8.4991 16.8449 8.41043 16.8084C8.32176 16.7719 8.24122 16.7181 8.1735 16.6502C8.10578 16.5823 8.05221 16.5017 8.01591 16.4129C7.97961 16.3241 7.9613 16.229 7.96204 16.1331V13.7653C7.96204 13.3623 8.28703 13.0373 8.69003 13.0373H11.5872V10.1383Z" fill="#8749EB"/>
</g>
<defs>
<clipPath id="clip0_258_1914">
<rect width="26" height="26" fill="white" transform="translate(0.5 0.0595703)"/>
</clipPath>
</defs>
</svg>
