<svg width="35" height="35" viewBox="0 0 35 35" fill="none" xmlns="http://www.w3.org/2000/svg">
<path d="M6.16675 26.9935V14.2435C6.16675 13.7949 6.26733 13.3699 6.4685 12.9685C6.66966 12.5671 6.94686 12.2365 7.30008 11.9768L15.8001 5.60182C16.2959 5.22405 16.8626 5.03516 17.5001 5.03516C18.1376 5.03516 18.7042 5.22405 19.2001 5.60182L27.7001 11.9768C28.0543 12.2365 28.3319 12.5671 28.5331 12.9685C28.7342 13.3699 28.8344 13.7949 28.8334 14.2435V26.9935C28.8334 27.7727 28.5557 28.4399 28.0004 28.9952C27.4451 29.5506 26.7783 29.8278 26.0001 29.8268H21.7501C21.3487 29.8268 21.0125 29.6908 20.7414 29.4188C20.4704 29.1468 20.3344 28.8106 20.3334 28.4102V21.3268C20.3334 20.9254 20.1974 20.5892 19.9254 20.3182C19.6534 20.0471 19.3172 19.9111 18.9167 19.9102H16.0834C15.682 19.9102 15.3458 20.0462 15.0747 20.3182C14.8037 20.5902 14.6677 20.9264 14.6667 21.3268V28.4102C14.6667 28.8115 14.5307 29.1482 14.2587 29.4202C13.9867 29.6922 13.6505 29.8278 13.2501 29.8268H9.00008C8.22091 29.8268 7.55414 29.5496 6.99975 28.9952C6.44536 28.4409 6.16769 27.7736 6.16675 26.9935Z" fill="#9FA0A0"/>
</svg>
