<svg width="35" height="35" viewBox="0 0 35 35" fill="none" xmlns="http://www.w3.org/2000/svg">
<path d="M6.16675 27.0111V14.2611C6.16675 13.8125 6.26733 13.3875 6.4685 12.9861C6.66966 12.5847 6.94686 12.2541 7.30008 11.9944L15.8001 5.6194C16.2959 5.24162 16.8626 5.05273 17.5001 5.05273C18.1376 5.05273 18.7042 5.24162 19.2001 5.6194L27.7001 11.9944C28.0543 12.2541 28.3319 12.5847 28.5331 12.9861C28.7342 13.3875 28.8344 13.8125 28.8334 14.2611V27.0111C28.8334 27.7902 28.5557 28.4575 28.0004 29.0128C27.4451 29.5682 26.7783 29.8453 26.0001 29.8444H21.7501C21.3487 29.8444 21.0125 29.7084 20.7414 29.4364C20.4704 29.1644 20.3344 28.8282 20.3334 28.4277V21.3444C20.3334 20.943 20.1974 20.6068 19.9254 20.3357C19.6534 20.0647 19.3172 19.9287 18.9167 19.9277H16.0834C15.682 19.9277 15.3458 20.0637 15.0747 20.3357C14.8037 20.6077 14.6677 20.944 14.6667 21.3444V28.4277C14.6667 28.8291 14.5307 29.1658 14.2587 29.4378C13.9867 29.7098 13.6505 29.8453 13.2501 29.8444H9.00008C8.22091 29.8444 7.55414 29.5672 6.99975 29.0128C6.44536 28.4584 6.16769 27.7912 6.16675 27.0111Z" fill="#8749EB"/>
</svg>
