<svg width="31" height="31" viewBox="0 0 31 31" fill="none" xmlns="http://www.w3.org/2000/svg">
<path d="M6.125 26.3096C6.125 26.3096 4.25 26.3096 4.25 24.4346C4.25 22.5596 6.125 16.9346 15.5 16.9346C24.875 16.9346 26.75 22.5596 26.75 24.4346C26.75 26.3096 24.875 26.3096 24.875 26.3096H6.125ZM15.5 15.0596C16.9918 15.0596 18.4226 14.4669 19.4775 13.412C20.5324 12.3572 21.125 10.9264 21.125 9.43457C21.125 7.94273 20.5324 6.51199 19.4775 5.45709C18.4226 4.4022 16.9918 3.80957 15.5 3.80957C14.0082 3.80957 12.5774 4.4022 11.5225 5.45709C10.4676 6.51199 9.875 7.94273 9.875 9.43457C9.875 10.9264 10.4676 12.3572 11.5225 13.412C12.5774 14.4669 14.0082 15.0596 15.5 15.0596Z" fill="#9FA0A0"/>
</svg>
