<svg width="31" height="31" viewBox="0 0 31 31" fill="none" xmlns="http://www.w3.org/2000/svg">
<path d="M6.125 26.292C6.125 26.292 4.25 26.292 4.25 24.417C4.25 22.542 6.125 16.917 15.5 16.917C24.875 16.917 26.75 22.542 26.75 24.417C26.75 26.292 24.875 26.292 24.875 26.292H6.125ZM15.5 15.042C16.9918 15.042 18.4226 14.4494 19.4775 13.3945C20.5324 12.3396 21.125 10.9088 21.125 9.41699C21.125 7.92515 20.5324 6.49441 19.4775 5.43952C18.4226 4.38462 16.9918 3.79199 15.5 3.79199C14.0082 3.79199 12.5774 4.38462 11.5225 5.43952C10.4676 6.49441 9.875 7.92515 9.875 9.41699C9.875 10.9088 10.4676 12.3396 11.5225 13.3945C12.5774 14.4494 14.0082 15.042 15.5 15.042Z" fill="#8749EB"/>
</svg>
